<svg width="448" height="135" viewBox="0 0 448 135" fill="none" xmlns="http://www.w3.org/2000/svg">
<path d="M112.674 134.708V127.146L112.606 127.122L111.167 130.344L110.093 132.583H107.397L106.277 130.229L104.884 127.122L104.816 127.192V134.708H101.298V118.807H104.476L106.628 123.423L108.686 128.196H108.779L110.77 123.423L112.875 118.807H116.193V134.708H112.674Z" fill="#FFFFFF"/>
<path d="M128.3 126.666L127.362 123.514H127.273L126.356 126.621L125.762 128.493H128.894L128.3 126.666ZM131.178 134.708L129.99 131.465H124.667L123.478 134.708H119.777L125.945 118.807H128.712L134.88 134.708H131.178Z" fill="#FFFFFF"/>
<path d="M142.308 131.556H144.614C145.208 131.556 145.698 131.476 146.089 131.317C146.475 131.156 146.783 130.928 147.012 130.631C147.241 130.333 147.406 129.976 147.502 129.557C147.603 129.138 147.653 128.669 147.653 128.152V125.25C147.653 124.153 147.413 123.335 146.933 122.794C146.454 122.254 145.655 121.984 144.546 121.984H142.308V131.556ZM145.129 118.807C146.318 118.807 147.395 119.035 148.354 119.493C149.318 119.951 150.048 120.703 150.553 121.754C150.843 122.332 151.018 123.018 151.079 123.811C151.14 124.602 151.172 125.494 151.172 126.484C151.172 127.595 151.14 128.564 151.079 129.385C151.018 130.208 150.857 130.932 150.599 131.556C150.338 132.149 150.009 132.648 149.604 133.052C149.2 133.455 148.745 133.78 148.24 134.023C147.739 134.266 147.187 134.442 146.593 134.549C145.999 134.655 145.38 134.708 144.739 134.708H138.789V118.807H145.129Z" fill="#FFFFFF"/>
<path d="M156.083 134.708V118.807H167.324V121.96H159.602V125.18H166.182V128.22H159.602V131.556H167.324V134.708H156.083Z" fill="#FFFFFF"/>
<path d="M180.479 118.807H183.998V134.708H180.479V118.807Z" fill="#FFFFFF"/>
<path d="M199.374 134.708L195.332 128.858L192.977 125.067L192.934 125.089V134.708H189.415V118.807H192.544L195.88 123.673L198.941 128.448L198.987 128.425V118.807H202.506V134.708H199.374Z" fill="#FFFFFF"/>
<path d="M223.019 121.96V134.708H219.503V121.96H215.161V118.807H227.361V121.96H223.019Z" fill="#FFFFFF"/>
<path d="M240.292 134.708V128.22H235.083V134.708H231.564V118.807H235.083V125.18H240.292V118.807H243.765V134.708H240.292Z" fill="#FFFFFF"/>
<path d="M249.248 134.708V118.807H260.489V121.96H252.768V125.18H259.348V128.22H252.768V131.556H260.489V134.708H249.248Z" fill="#FFFFFF"/>
<path d="M285.197 131.476C284.868 132.168 284.427 132.763 283.873 133.256C283.314 133.752 282.663 134.137 281.907 134.412C281.152 134.685 280.35 134.823 279.498 134.823C278.642 134.823 277.841 134.681 277.085 134.401C276.334 134.118 275.675 133.722 275.109 133.212C274.547 132.702 274.107 132.084 273.785 131.361C273.466 130.638 273.304 129.834 273.304 128.952V118.807H276.824V128.682C276.824 129.594 277.085 130.298 277.608 130.792C278.131 131.286 278.764 131.533 279.509 131.533C280.282 131.533 280.919 131.313 281.421 130.871C281.918 130.43 282.169 129.77 282.169 128.887V118.807H285.687V129.156C285.687 130.01 285.523 130.783 285.197 131.476Z" fill="#FFFFFF"/>
<path d="M290.735 130.939H294.597V134.709H290.735V130.939Z" fill="#FFFFFF"/>
<path d="M309.078 122.964C308.699 122.721 308.323 122.531 307.951 122.394C307.575 122.257 307.217 122.15 306.877 122.074C306.533 121.998 306.218 121.947 305.928 121.926C305.639 121.902 305.388 121.892 305.173 121.892C304.732 121.892 304.378 121.937 304.109 122.028C303.845 122.119 303.63 122.241 303.473 122.394C303.311 122.545 303.204 122.71 303.15 122.886C303.097 123.061 303.071 123.224 303.071 123.376C303.071 123.636 303.122 123.849 303.219 124.017C303.318 124.184 303.494 124.328 303.744 124.45C303.995 124.571 304.335 124.679 304.768 124.771C305.201 124.861 305.746 124.96 306.397 125.068C307.053 125.173 307.675 125.329 308.266 125.534C308.86 125.74 309.379 126.027 309.826 126.392C310.274 126.757 310.632 127.219 310.897 127.774C311.162 128.33 311.298 129.013 311.298 129.819C311.298 130.642 311.112 131.368 310.747 132C310.382 132.634 309.905 133.158 309.322 133.577C308.734 133.995 308.065 134.313 307.309 134.526C306.555 134.738 305.792 134.846 305.016 134.846C304.482 134.846 303.941 134.819 303.39 134.766C302.843 134.712 302.295 134.606 301.747 134.444C301.199 134.285 300.655 134.06 300.114 133.772C299.574 133.482 299.044 133.11 298.525 132.652L300.558 129.956C301.303 130.627 302.058 131.072 302.821 131.293C303.583 131.513 304.375 131.624 305.198 131.624C305.974 131.624 306.565 131.468 306.977 131.155C307.389 130.844 307.597 130.475 307.597 130.047C307.597 129.85 307.571 129.658 307.528 129.476C307.481 129.293 307.382 129.121 307.231 128.962C307.077 128.803 306.855 128.665 306.565 128.551C306.279 128.436 305.895 128.358 305.424 128.311C304.664 128.235 303.931 128.114 303.232 127.945C302.531 127.777 301.908 127.516 301.356 127.158C300.808 126.8 300.372 126.335 300.043 125.764C299.717 125.193 299.553 124.457 299.553 123.559C299.553 122.721 299.717 121.994 300.047 121.377C300.376 120.761 300.806 120.251 301.335 119.846C301.865 119.443 302.456 119.147 303.114 118.955C303.769 118.765 304.429 118.67 305.083 118.67C306.057 118.67 307.023 118.776 307.983 118.989C308.942 119.203 309.848 119.592 310.704 120.154L309.078 122.964Z" fill="#FFFFFF"/>
<path d="M315.658 130.939H319.52V134.709H315.658V130.939Z" fill="#FFFFFF"/>
<path d="M331.746 126.666L330.809 123.514H330.719L329.802 126.621L329.208 128.493H332.34L331.746 126.666ZM334.624 134.708L333.435 131.465H328.112L326.924 134.708H323.223L329.391 118.807H332.158L338.326 134.708H334.624Z" fill="#FFFFFF"/>
<path d="M342.092 130.939H345.954V134.709H342.092V130.939Z" fill="#FFFFFF"/>
<path d="M12.188 67.8888C11.304 67.8888 10.541 68.0338 9.898 68.3218C9.26 68.6098 8.725 68.9968 8.296 69.4838C7.873 69.9698 7.551 70.5238 7.337 71.1468C7.123 71.7688 7.016 72.4008 7.016 73.0378V81.6498C7.016 82.3498 7.123 83.0168 7.337 83.6558C7.551 84.2928 7.873 84.8558 8.296 85.3418C8.725 85.8258 9.26 86.2238 9.898 86.5268C10.541 86.8298 11.304 86.9818 12.188 86.9818C13.897 86.9818 15.218 86.4728 16.146 85.4558C17.079 84.4388 17.543 83.1688 17.543 81.6498V73.0378C17.543 71.6418 17.079 70.4318 16.146 69.4138C15.218 68.3978 13.897 67.8888 12.188 67.8888ZM12.255 61.3258C14.169 61.3258 15.896 61.6388 17.427 62.2608C18.962 62.8838 20.27 63.7408 21.35 64.8358C22.425 65.9298 23.255 67.2348 23.831 68.7538C24.407 70.2738 24.697 71.9138 24.697 73.6768V81.1498C24.697 83.0328 24.402 84.7418 23.809 86.2748C23.215 87.8098 22.38 89.1158 21.301 90.1958C20.225 91.2728 18.917 92.1008 17.382 92.6788C15.847 93.2538 14.138 93.5438 12.255 93.5438C10.188 93.5438 8.39 93.2098 6.855 92.5398C5.324 91.8728 4.048 90.9698 3.03 89.8288C2.013 88.6918 1.25 87.3678 0.75 85.8648C0.25 84.3608 0 82.7888 0 81.1498V73.6768C0 72.0348 0.25 70.4698 0.75 68.9818C1.25 67.4928 2.013 66.1798 3.03 65.0408C4.048 63.9008 5.324 62.9968 6.855 62.3278C8.39 61.6608 10.188 61.3258 12.255 61.3258Z" fill="#FFFFFF"/>
<path d="M51.6739 93.2697L45.3409 82.9717L39.0529 93.2697H31.1229L41.8779 77.0477L31.7159 61.5537H39.6919L45.3409 71.0777L51.0359 61.5537H59.0099L48.8489 77.0477L59.6489 93.2697H51.6739Z" fill="#FFFFFF"/>
<path d="M74.5005 67.8419V74.5419H87.6255V80.6029H74.5005V93.2699H67.4845V61.5529H89.9055V67.8419H74.5005Z" fill="#FFFFFF"/>
<path d="M108.703 67.8888C107.819 67.8888 107.056 68.0338 106.413 68.3218C105.775 68.6098 105.24 68.9968 104.811 69.4838C104.388 69.9698 104.066 70.5238 103.852 71.1468C103.638 71.7688 103.531 72.4008 103.531 73.0378V81.6498C103.531 82.3498 103.638 83.0168 103.852 83.6558C104.066 84.2928 104.388 84.8558 104.811 85.3418C105.24 85.8258 105.775 86.2238 106.413 86.5268C107.056 86.8298 107.819 86.9818 108.703 86.9818C110.412 86.9818 111.733 86.4728 112.661 85.4558C113.594 84.4388 114.058 83.1688 114.058 81.6498V73.0378C114.058 71.6418 113.594 70.4318 112.661 69.4138C111.733 68.3978 110.412 67.8888 108.703 67.8888ZM108.77 61.3258C110.684 61.3258 112.411 61.6388 113.942 62.2608C115.477 62.8838 116.785 63.7408 117.865 64.8358C118.94 65.9298 119.77 67.2348 120.346 68.7538C120.922 70.2738 121.212 71.9138 121.212 73.6768V81.1498C121.212 83.0328 120.917 84.7418 120.324 86.2748C119.73 87.8098 118.896 89.1158 117.816 90.1958C116.74 91.2728 115.432 92.1008 113.897 92.6788C112.362 93.2538 110.653 93.5438 108.77 93.5438C106.703 93.5438 104.905 93.2098 103.37 92.5398C101.839 91.8728 100.563 90.9698 99.5447 89.8288C98.5277 88.6918 97.7647 87.3678 97.2647 85.8648C96.7647 84.3608 96.5147 82.7888 96.5147 81.1498V73.6768C96.5147 72.0348 96.7647 70.4698 97.2647 68.9818C97.7647 67.4928 98.5277 66.1798 99.5447 65.0408C100.563 63.9008 101.839 62.9968 103.37 62.3278C104.905 61.6608 106.703 61.3258 108.77 61.3258Z" fill="#FFFFFF"/>
<path d="M147.822 71.1242C147.822 69.9382 147.461 69.0892 146.729 68.5712C146.001 68.0562 145.047 67.7972 143.859 67.7972H137.843V74.7232H143.632C144.908 74.7232 145.926 74.4192 146.684 73.8122C147.443 73.2052 147.822 72.3092 147.822 71.1242ZM147.416 93.2702L142.4 81.0112H137.843V93.2702H130.828V61.5532H144.864C146.26 61.5532 147.572 61.7682 148.804 62.1912C150.036 62.6182 151.12 63.2342 152.062 64.0372C153.003 64.8422 153.749 65.8372 154.293 67.0222C154.842 68.2072 155.114 69.5602 155.114 71.0772C155.114 72.9912 154.623 74.7162 153.633 76.2492C152.646 77.7842 151.196 78.9602 149.281 79.7812L155.342 93.2702H147.416Z" fill="#FFFFFF"/>
<path d="M172.064 86.9816H176.669C177.852 86.9816 178.834 86.8216 179.606 86.5026C180.382 86.1826 180.998 85.7276 181.453 85.1366C181.909 84.5436 182.234 83.8296 182.431 82.9946C182.627 82.1606 182.73 81.2246 182.73 80.1916V74.4036C182.73 72.2166 182.248 70.5846 181.293 69.5056C180.338 68.4276 178.749 67.8886 176.531 67.8886H172.064V86.9816ZM177.691 61.5536C180.065 61.5536 182.212 62.0086 184.131 62.9216C186.045 63.8316 187.509 65.3356 188.513 67.4326C189.093 68.5866 189.441 69.9546 189.562 71.5346C189.683 73.1146 189.745 74.8906 189.745 76.8656C189.745 79.0836 189.683 81.0106 189.562 82.6536C189.441 84.2936 189.12 85.7366 188.603 86.9816C188.085 88.1676 187.424 89.1626 186.617 89.9646C185.814 90.7706 184.907 91.4186 183.903 91.9026C182.899 92.3886 181.801 92.7386 180.614 92.9516C179.427 93.1636 178.195 93.2696 176.919 93.2696H165.048V61.5536H177.691Z" fill="#FFFFFF"/>
<path d="M233.948 71.6261C233.948 70.3501 233.568 69.3981 232.809 68.7761C232.047 68.1531 230.971 67.8421 229.574 67.8421H223.875V75.4081H229.753C230.909 75.4081 231.895 75.0641 232.716 74.3821C233.537 73.6981 233.948 72.7791 233.948 71.6261ZM241.056 71.7621C241.056 73.1891 240.766 74.5111 240.191 75.7251C239.611 76.9401 238.83 77.9891 237.844 78.8711C236.857 79.7521 235.693 80.4411 234.358 80.9441C233.019 81.4431 231.592 81.6961 230.074 81.6961H223.875V93.2701H216.86V61.5531H229.936C231.609 61.5531 233.127 61.7901 234.492 62.2611C235.862 62.7311 237.031 63.4081 238.005 64.2891C238.972 65.1701 239.727 66.2421 240.258 67.5001C240.789 68.7611 241.056 70.1821 241.056 71.7621Z" fill="#FFFFFF"/>
<path d="M249.166 93.2697V61.5537H271.586V67.8417H256.181V74.2677H269.306V80.3287H256.181V86.9817H271.586V93.2697H249.166Z" fill="#FFFFFF"/>
<path d="M300.25 93.2697L292.182 81.6047L287.491 74.0407L287.397 74.0847V93.2697H280.383V61.5537H286.626L293.275 71.2597L299.385 80.7837L299.474 80.7387V61.5537H306.493V93.2697H300.25Z" fill="#FFFFFF"/>
<path d="M337.161 93.2697L329.093 81.6047L324.402 74.0407L324.308 74.0847V93.2697H317.293V61.5537H323.536L330.185 71.2597L336.296 80.7837L336.385 80.7387V61.5537H343.404V93.2697H337.161Z" fill="#FFFFFF"/>
<path d="M367.918 77.2287L366.053 70.9407H365.87L364.045 77.1397L362.862 80.8747H369.105L367.918 77.2287ZM373.661 93.2697L371.292 86.7987H360.675L358.306 93.2697H350.924L363.228 61.5537H368.739L381.043 93.2697H373.661Z" fill="#FFFFFF"/>
<path d="M408.703 93.2697L400.634 81.6047L395.943 74.0407L395.85 74.0847V93.2697H388.835V61.5537H395.078L401.727 71.2597L407.837 80.7837L407.926 80.7387V61.5537H414.946V93.2697H408.703Z" fill="#FFFFFF"/>
<path d="M438.594 67.8419V93.2699H431.578V67.8419H422.921V61.5529H447.251V67.8419H438.594Z" fill="#FFFFFF"/>
<path d="M186.441 0.0635796L186.283 0.0335808V36.1666L275.187 18.0986L186.441 0.0635796Z" fill="#FFFFFF"/>
<path d="M181.52 6.257L172.993 4.13499L172.336 6.213L181.52 8.467V9.424L176.381 8.165L172.064 9.235L172.828 11.651L181.52 9.492V26.673L172.993 24.555L172.336 26.632L181.52 28.886V29.842L176.381 28.584L172.064 29.657L172.828 32.07L181.52 29.912V36.2H184.125V-3.8147e-06H181.52V6.257Z" fill="#FFFFFF"/>
</svg>
